<svg xmlns="http://www.w3.org/2000/svg" viewBox="0 0 700 700">
  <g>
    <path d="M16.06+307.799C16.06+259.309+48.6222+220+88.7896+220C128.957+220+161.519+259.309+161.519+307.799C161.519+356.289+128.957+395.597+88.7896+395.597C48.6222+395.597+16.06+356.289+16.06+307.799Z"/>
    <path d="M170+114.799C170+66.3088+202.562+27+242.73+27C282.897+27+315.459+66.3088+315.459+114.799C315.459+163.289+282.897+202.597+242.73+202.597C202.562+202.597+170+163.289+170+114.799Z"/>
    <path d="M390.36+114.799C390.36+66.3088+422.922+27+463.09+27C503.257+27+535.819+66.3088+535.819+114.799C535.819+163.289+503.257+202.597+463.09+202.597C422.922+202.597+390.36+163.289+390.36+114.799Z"/>
    <path d="M543.27+307.799C543.27+259.309+575.832+220+616+220C656.167+220+688.729+259.309+688.729+307.799C688.729+356.289+656.167+395.597+616+395.597C575.832+395.597+543.27+356.289+543.27+307.799Z"/>
    <path d="M92.4389+485.601C92.4389+438.253+152.806+389.84+178.219+353.92C218.127+297.514+282.629+218.122+356.981+218.122C428.509+218.122+493.877+300.361+534.133+353.167C562.372+390.209+619.162+435.427+619.162+485.601C619.162+607.301+478.682+658.839+356.981+658.839C235.281+658.839+92.4389+607.301+92.4389+485.601Z"/>
  </g>
</svg>
