<?xml version="1.0" encoding="UTF-8" standalone="no"?>
<svg viewBox="0 0 700 700">
  <g>
    <path d="M92.4389+485.601C92.4389+438.253+152.806+389.84+178.219+353.92C218.127+297.514+282.629+218.122+356.981+218.122C428.509+218.122+493.877+300.361+534.133+353.167C562.372+390.209+619.162+435.427+619.162+485.601C619.162+607.301+478.682+658.839+356.981+658.839C235.281+658.839+92.4389+607.301+92.4389+485.601Z" fill="#559dff"/>
    <path d="M136.052+482.117C136.052+443.076+185.629+403.157+206.5+373.54C239.274+327.03+292.247+261.567+353.309+261.567C412.051+261.567+465.735+329.377+498.796+372.919C521.987+403.462+568.626+440.747+568.626+482.117C568.626+582.466+453.256+624.961+353.309+624.961C253.362+624.961+136.052+582.466+136.052+482.117Z" fill="#ffffff"/>

    <g>
      <path d="M425.008+349.925C408.421+342.465+386.562+340.794+362.812+344.961C352.202+322.133+341.702+314.987+325.723+320.057C319.263+322.106+312.075+327.755+309.165+333.917C306.72+339.183+305.121+348.297+311.136+361.357C311.243+361.697+311.243+361.697+311.243+361.697C303.623+365.986+296.451+370.506+290.854+375.276C272.92+390.695+261.38+408.576+255.685+420.112L254.822+417.393C250.616+404.133+236.624+396.598+222.47+400.341C208.995+403.868+197.628+417.577+204.64+439.676C207.444+448.515+234.535+532.722+238.343+542.366C244.757+559.041+260.497+562.654+272.396+558.878C276.816+557.476+280.912+555.054+284.005+551.827C295.463+539.585+294.241+522.76+292.927+504.466L292.711+503.787C292.42+500.511+292.362+496.788+292.071+493.512C291.113+473.983+299.849+447.263+313.893+427.839C317.806+422.481+323.295+417.371+330.019+412.618C335.413+429.617+341.345+448.316+345.827+465.979C348.507+475.606+350.955+485.681+353.296+495.416C339.406+496.455+330.857+502.535+326.522+513.64C323.828+520.482+324.054+528.269+327.231+534.745C330.176+541.669+336.073+547.282+344.151+550.332C348.861+552.205+356.4+553.555+365.082+553.794C365.514+555.154+365.605+556.622+366.037+557.982C366.759+562.617+367.605+566.465+368.236+569.633C371.39+585.471+382.23+592.509+397.912+592.399C399.827+592.539+401.975+592.232+404.015+591.585C413.534+588.564+419.876+579.068+420.828+567.914C421.25+562.168+420.684+554.489+419.455+545.898C421.835+545.143+423.767+544.155+426.147+543.4C465.833+529.312+490.348+495.714+491.742+454.109C493.077+408.782+467.047+368.02+425.008+349.925ZM415.969+483.015C413.465+484.558+410.621+486.209+407.669+487.52C403.851+470.769+400.109+456.614+398.383+451.175C393.238+432.6+387.877+413.346+381.944+394.647C382.284+394.539+382.624+394.431+383.072+394.663C392.667+394.239+416.89+396.282+432.253+425.834C445.75+451.863+431.906+473.094+415.969+483.015Z" fill="#559dff"/>
    </g>
  </g>

  <g>
    <path d="M16.06+307.799C16.06+259.309+48.6222+220+88.7896+220C128.957+220+161.519+259.309+161.519+307.799C161.519+356.289+128.957+395.597+88.7896+395.597C48.6222+395.597+16.06+356.289+16.06+307.799Z" fill="#559dff"/>
    <path d="M170+114.799C170+66.3088+202.562+27+242.73+27C282.897+27+315.459+66.3088+315.459+114.799C315.459+163.289+282.897+202.597+242.73+202.597C202.562+202.597+170+163.289+170+114.799Z" fill="#fd9547"/>
    <path d="M390.36+114.799C390.36+66.3088+422.922+27+463.09+27C503.257+27+535.819+66.3088+535.819+114.799C535.819+163.289+503.257+202.597+463.09+202.597C422.922+202.597+390.36+163.289+390.36+114.799Z" fill="#559dff"/>
    <path d="M543.27+307.799C543.27+259.309+575.832+220+616+220C656.167+220+688.729+259.309+688.729+307.799C688.729+356.289+656.167+395.597+616+395.597C575.832+395.597+543.27+356.289+543.27+307.799Z" fill="#559dff"/>
  </g>
</svg>
